# xmcd
#
# Track frame offsets:
#       150
#       15976
#       38430
#       64173
#       82830
#       109522
#       143645
#       173117
#       193956
#       215638
#       234387
#       252264
#       271166
#       297526
#
# Disc length: 4226 seconds
#
# Revision: 1
# Processed by: cddbd v1.5.2PL0 Copyright (c) Steve Scherf et al.
# Submitted via: FreeDbEdit v0.1
#
DISCID=bd10800e
DTITLE=Hotel Costes - Etage 3
DYEAR=1900
DGENRE=
TTITLE0=A Reminiacent Drive
TTITLE1=Shirley Bassey
TTITLE2=Cosmos Sound Club
TTITLE3=Stereo Action Unlimited
TTITLE4=Coco Steel and Lovebomb
TTITLE5=Hacienda
TTITLE6=Funky Lowlives
TTITLE7=Cujo-Superstars of Rock
TTITLE8=Can-7
TTITLE9=Gazzara Pompougnac
TTITLE10=Nickodemus
TTITLE11=Trouble Makers
TTITLE12=Gotan Project
TTITLE13=Lustral
EXTD=
EXTT0=
EXTT1=
EXTT2=
EXTT3=
EXTT4=
EXTT5=
EXTT6=
EXTT7=
EXTT8=
EXTT9=
EXTT10=
EXTT11=
EXTT12=
EXTT13=
PLAYORDER=
